<?xml version="1.0" standalone="no"?>
<!DOCTYPE svg PUBLIC "-//W3C//DTD SVG 20010904//EN"
 "http://www.w3.org/TR/2001/REC-SVG-20010904/DTD/svg10.dtd">
<svg version="1.0" xmlns="http://www.w3.org/2000/svg"
 width="735.000000pt" height="768.000000pt" viewBox="0 0 735.000000 768.000000"
 preserveAspectRatio="xMidYMid meet">
<metadata>
Created by potrace 1.16, written by Peter Selinger 2001-2019
</metadata>
<g transform="translate(0.000000,768.000000) scale(0.100000,-0.100000)"
fill="#000000" stroke="none">
<path d="M3350 7260 c-30 -11 -82 -24 -114 -29 -33 -6 -63 -16 -66 -22 -4 -6
-29 -15 -54 -20 -26 -5 -59 -18 -73 -29 -14 -11 -32 -20 -41 -20 -19 0 -142
-61 -142 -70 0 -4 -11 -10 -23 -14 -32 -8 -151 -85 -207 -134 -25 -22 -55 -45
-68 -51 -40 -21 -279 -252 -310 -301 -9 -14 -22 -29 -29 -33 -7 -4 -13 -13
-13 -18 0 -6 -31 -47 -69 -92 -37 -45 -71 -92 -75 -103 -4 -12 -15 -29 -26
-39 -11 -10 -20 -26 -20 -36 0 -10 -8 -23 -19 -28 -10 -6 -22 -23 -26 -38 -3
-16 -15 -36 -26 -46 -10 -10 -19 -26 -19 -37 0 -10 -11 -31 -25 -46 -14 -15
-25 -33 -25 -40 0 -7 -11 -30 -25 -50 -14 -20 -25 -44 -25 -53 0 -10 -7 -26
-15 -37 -8 -10 -19 -36 -25 -56 -6 -20 -17 -43 -24 -51 -7 -7 -17 -29 -21 -48
-4 -19 -16 -48 -26 -65 -10 -17 -19 -40 -19 -50 0 -11 -8 -35 -18 -54 -11 -19
-22 -55 -26 -80 -4 -25 -14 -56 -22 -69 -9 -13 -20 -55 -26 -94 -5 -38 -16
-79 -23 -91 -8 -12 -17 -55 -20 -96 -5 -50 -14 -87 -28 -110 -21 -34 -22 -43
-21 -425 0 -377 1 -391 21 -425 12 -19 24 -63 28 -98 4 -34 13 -68 19 -75 7
-7 16 -36 19 -66 4 -30 13 -61 22 -71 8 -9 20 -32 26 -51 15 -47 101 -220 119
-240 8 -9 26 -34 40 -54 99 -145 296 -282 432 -300 26 -3 50 -10 53 -16 4 -5
17 -9 29 -9 32 0 184 38 223 55 17 8 35 15 40 15 5 0 20 11 33 25 13 14 29 25
35 25 7 0 20 9 30 20 10 11 24 20 30 20 7 0 20 10 28 23 9 12 41 49 71 82 31
33 56 65 56 71 0 6 11 21 24 34 14 12 28 37 32 54 3 17 12 38 19 46 7 8 16 31
20 50 4 19 15 50 25 70 11 22 20 71 24 130 4 52 11 99 16 105 4 5 13 30 20 55
7 28 27 60 51 85 21 22 52 57 69 77 17 20 40 40 50 43 10 3 22 14 25 24 7 23
111 97 162 115 21 8 52 21 68 29 86 45 266 62 357 34 54 -16 58 -20 69 -60 6
-23 17 -49 25 -58 7 -8 19 -31 25 -50 18 -51 86 -148 143 -202 33 -32 87 -65
154 -98 l104 -49 126 0 c114 1 132 3 177 25 28 14 60 25 71 25 12 0 27 7 34
15 7 8 21 15 30 15 10 0 32 11 48 25 17 14 34 25 40 25 15 0 190 178 207 211
9 16 20 29 25 29 6 0 10 6 10 13 0 7 11 28 23 47 13 19 27 48 31 64 4 15 13
35 21 43 8 7 19 33 25 56 5 23 15 56 21 72 6 17 15 54 20 83 5 30 17 65 27 80
15 23 17 62 17 393 0 272 -3 370 -12 381 -7 8 -19 54 -27 104 -8 49 -22 106
-30 126 -9 21 -16 55 -16 76 0 24 -8 49 -20 65 -11 14 -25 47 -30 74 -10 52
-49 153 -68 176 -7 8 -15 29 -18 48 -4 19 -13 41 -20 49 -19 22 -74 130 -74
145 0 8 -10 22 -22 32 -13 10 -33 39 -45 65 -22 46 -86 133 -139 189 -13 14
-24 30 -24 35 0 11 -154 169 -194 199 -14 11 -39 31 -55 45 -16 14 -45 36 -66
50 -20 14 -44 32 -53 41 -9 9 -28 20 -42 24 -13 4 -36 15 -50 25 -84 57 -109
70 -131 70 -13 0 -41 9 -62 20 -20 11 -46 20 -57 20 -11 0 -47 11 -80 25 -58
24 -65 25 -312 25 -225 -1 -259 -3 -308 -20z m503 -189 c48 -5 85 -15 96 -25
10 -9 40 -20 67 -25 47 -7 202 -83 253 -122 13 -11 28 -19 33 -19 6 0 29 -15
52 -32 22 -18 47 -37 54 -43 39 -30 141 -133 151 -153 16 -30 9 -47 -27 -69
-16 -10 -55 -49 -88 -88 -32 -38 -67 -78 -77 -88 -16 -16 -77 -104 -103 -148
-6 -10 -17 -27 -26 -36 -8 -10 -26 -41 -41 -69 -14 -28 -37 -68 -51 -89 -14
-21 -26 -43 -26 -50 0 -16 -50 -108 -64 -117 -5 -3 -20 -35 -32 -70 -36 -104
-54 -151 -69 -183 -8 -16 -19 -49 -25 -72 -12 -48 -22 -53 -43 -23 -12 17 -16
18 -26 6 -7 -8 -15 -31 -18 -53 -3 -21 -11 -44 -17 -52 -6 -8 -11 -57 -11
-120 l0 -106 -43 -3 c-36 -3 -48 1 -67 22 -29 31 -65 34 -72 6 -3 -11 -17 -23
-32 -26 -14 -4 -31 -11 -38 -16 -14 -12 -70 -1 -98 18 -39 27 -61 15 -56 -31
0 -5 -11 -16 -26 -22 -32 -15 -53 -2 -53 32 0 16 -13 29 -49 48 l-50 25 -19
-56 -19 -57 -54 -8 c-68 -10 -76 -6 -85 37 -7 38 -18 46 -27 22 -3 -8 -1 -17
6 -20 7 -3 3 -4 -8 -3 -16 2 -19 -3 -17 -24 2 -23 -2 -27 -35 -32 -76 -13
-122 20 -123 86 0 21 -5 37 -11 37 -16 0 -38 31 -39 54 0 10 -10 29 -22 41
-28 28 -73 101 -83 135 -4 14 -15 34 -25 45 -19 22 -50 83 -50 98 0 12 -62
107 -105 162 -17 22 -48 68 -69 103 -21 34 -43 68 -49 75 -7 6 -32 36 -55 64
-24 29 -57 60 -72 70 -30 17 -50 51 -50 83 0 10 22 45 48 77 27 32 55 69 62
83 7 14 27 40 44 59 58 64 282 286 316 314 113 90 155 119 208 146 33 17 63
35 67 41 3 5 25 15 48 21 23 6 44 15 47 19 11 17 145 70 178 70 19 0 50 9 68
21 24 15 63 23 136 30 56 5 104 12 107 15 7 6 202 -3 304 -15z m881 -644 c28
-23 72 -97 150 -253 20 -39 36 -77 36 -83 0 -7 9 -24 19 -38 11 -13 23 -45 27
-70 4 -25 15 -54 25 -64 11 -11 19 -32 19 -48 0 -16 9 -48 20 -72 11 -24 20
-64 20 -89 0 -28 9 -62 24 -90 20 -38 25 -67 32 -185 17 -280 4 -605 -26 -670
-10 -22 -23 -62 -29 -90 -15 -74 -99 -245 -144 -294 -13 -14 -30 -36 -38 -47
-24 -36 -161 -134 -187 -134 -14 0 -35 -11 -47 -25 -23 -24 -25 -24 -147 -18
-90 5 -130 11 -148 23 -138 92 -158 111 -196 188 -56 115 -66 173 -71 401 -2
117 1 263 7 323 12 125 52 324 73 365 8 15 17 46 21 68 7 40 47 149 72 195 7
14 22 45 33 70 11 25 34 69 50 98 17 29 31 59 31 67 0 8 11 22 25 31 14 9 25
21 25 27 0 5 17 29 39 52 21 23 45 58 52 78 7 21 16 37 21 37 4 0 23 25 43 55
33 53 56 67 71 44 10 -16 26 5 18 24 -3 9 -10 17 -15 17 -22 0 -7 61 22 95 17
19 34 35 38 35 3 0 19 -11 35 -23z m-2571 -542 c9 -38 18 -83 19 -98 2 -24 4
-26 14 -13 14 20 24 20 24 1 0 -8 5 -15 10 -15 6 0 10 -4 10 -9 0 -5 20 -29
45 -54 25 -26 45 -52 45 -60 0 -8 9 -26 20 -40 11 -14 20 -32 20 -40 0 -9 7
-22 15 -30 8 -8 16 -27 19 -42 3 -15 14 -36 25 -46 10 -10 22 -33 26 -51 4
-18 16 -46 27 -61 33 -46 64 -109 78 -159 8 -27 18 -48 22 -48 4 0 8 -8 8 -18
0 -10 6 -26 14 -37 7 -11 16 -51 20 -88 6 -65 21 -97 45 -97 5 0 13 -17 17
-37 4 -21 15 -60 26 -87 10 -27 24 -71 29 -97 6 -27 14 -49 19 -49 5 0 11 -26
14 -57 4 -32 12 -89 18 -128 14 -82 11 -70 26 -120 20 -67 15 -262 -8 -335
-11 -34 -20 -80 -20 -102 0 -34 -28 -111 -62 -173 -7 -11 -18 -32 -26 -47 -7
-16 -17 -28 -22 -28 -5 0 -11 -8 -14 -18 -11 -32 -113 -126 -168 -154 -124
-63 -154 -69 -204 -43 -16 8 -45 15 -65 15 -20 0 -44 8 -55 18 -10 9 -41 34
-69 54 -59 43 -119 106 -161 168 -72 105 -84 127 -84 146 0 11 -6 28 -14 39
-24 35 -67 152 -76 211 -5 31 -17 65 -25 74 -53 59 -49 823 4 927 13 24 22 65
25 109 2 40 11 82 19 95 9 13 19 42 22 64 4 22 16 54 26 70 10 17 21 55 25 85
5 36 13 60 26 68 11 8 18 25 18 44 0 17 9 45 19 62 10 17 22 45 25 62 4 18 16
40 27 50 11 10 19 30 19 49 0 18 7 38 16 45 8 8 22 29 30 49 18 43 30 52 69
49 28 -3 31 -7 48 -73z m1447 -781 c6 -14 19 -28 30 -31 32 -9 37 -93 7 -130
-19 -25 -27 -12 -27 41 0 62 -21 92 -39 57 -16 -29 -13 -87 5 -102 14 -11 14
-13 -1 -22 -29 -16 -58 24 -66 90 -7 64 -2 75 46 105 37 22 34 23 45 -8z
m-181 -51 c15 -62 9 -136 -14 -159 -30 -31 -53 -36 -60 -14 -3 10 -17 25 -30
34 -23 15 -25 23 -25 86 0 79 8 89 77 90 41 0 43 -2 52 -37z"/>
<path d="M6622 2919 l-22 -8 2 -238 3 -238 150 0 150 0 0 115 0 115 -25 0
c-24 0 -25 -2 -26 -73 0 -52 -5 -76 -15 -83 -16 -10 -139 -12 -163 -3 -14 5
-16 33 -16 209 0 112 -3 206 -7 208 -5 3 -18 1 -31 -4z"/>
<path d="M5847 2413 c-13 -12 -7 -51 9 -57 27 -11 212 -7 219 5 4 5 4 21 1 35
-6 24 -8 24 -115 24 -59 0 -111 -3 -114 -7z"/>
<path d="M6125 1948 c-3 -7 -4 -103 -3 -213 l3 -200 25 0 25 0 0 210 0 210
-23 3 c-12 2 -24 -3 -27 -10z"/>
<path d="M6650 1746 l0 -215 38 -3 c20 -2 65 -1 100 0 61 4 63 5 60 29 -3 24
-6 26 -66 28 -43 1 -67 6 -73 16 -6 8 -8 42 -6 77 3 66 14 83 52 81 11 -1 37
-1 58 0 33 1 37 4 37 26 0 24 -2 25 -64 25 -40 0 -68 5 -74 13 -6 7 -12 40
-14 72 -3 53 -5 60 -25 63 l-23 3 0 -215z"/>
<path d="M6517 1798 c-11 -9 -17 -31 -19 -68 -3 -52 -4 -55 -35 -64 -45 -12
-45 -45 0 -66 19 -9 34 -25 37 -40 4 -16 14 -26 28 -28 22 -3 22 -2 22 137 0
78 -4 141 -8 141 -5 0 -16 -6 -25 -12z"/>
</g>
</svg>
