<?xml version="1.0" standalone="no"?>
<!DOCTYPE svg PUBLIC "-//W3C//DTD SVG 20010904//EN"
 "http://www.w3.org/TR/2001/REC-SVG-20010904/DTD/svg10.dtd">
<svg version="1.0" xmlns="http://www.w3.org/2000/svg"
 width="400.000000pt" height="400.000000pt" viewBox="0 0 400.000000 400.000000"
 preserveAspectRatio="xMidYMid meet">
<metadata>
Created by potrace 1.16, written by Peter Selinger 2001-2019
</metadata>
<g transform="translate(0.000000,400.000000) scale(0.100000,-0.100000)"
fill="#000000" stroke="none">
<path d="M1990 3331 c-127 -42 -237 -144 -304 -283 -59 -122 -79 -208 -74
-324 3 -78 8 -100 37 -158 52 -106 128 -143 202 -99 43 25 78 76 86 126 7 48
52 102 101 122 59 25 77 20 106 -30 48 -82 130 -97 205 -38 109 87 122 292 31
480 -37 74 -109 153 -170 184 -49 24 -173 36 -220 20z m179 -58 c24 -8 58 -29
77 -45 l34 -30 -26 -26 c-30 -31 -85 -123 -102 -170 -6 -18 -18 -40 -27 -48
-8 -8 -15 -23 -14 -32 0 -12 3 -11 9 6 11 27 20 29 13 2 -8 -29 -31 -46 -45
-32 -8 8 -16 5 -30 -11 -10 -12 -18 -17 -17 -12 3 22 -2 35 -12 35 -6 0 -9 -9
-6 -20 6 -23 -8 -27 -17 -5 -7 20 -24 19 -28 -2 -3 -15 -4 -15 -20 1 -16 15
-18 15 -18 2 0 -17 -9 -20 -25 -8 -6 4 -31 42 -55 86 -25 43 -55 90 -68 103
-29 32 -23 50 39 113 104 105 217 136 338 93z m159 -146 c69 -117 85 -303 36
-400 -18 -34 -70 -67 -106 -67 -15 0 -40 11 -55 24 -26 23 -28 31 -32 110 -4
106 21 197 77 276 21 31 41 63 45 73 9 23 12 22 35 -16z m-577 -89 c1 -7 0
-20 -1 -28 -1 -8 1 -12 5 -8 12 11 30 -13 69 -91 25 -48 35 -80 31 -94 -4 -15
-3 -18 3 -9 14 20 36 -71 36 -148 -1 -136 -85 -206 -162 -136 -97 87 -102 304
-12 499 14 28 29 36 31 15z"/>
</g>
</svg>
